<svg width="30" height="41" viewBox="0 0 30 41" fill="none" xmlns="http://www.w3.org/2000/svg">
<path d="M14.8232 29.1768C14.9209 29.2744 15.0791 29.2744 15.1768 29.1768L16.7678 27.5858C16.8654 27.4882 16.8654 27.3299 16.7678 27.2322C16.6701 27.1346 16.5118 27.1346 16.4142 27.2322L15 28.6464L13.5858 27.2322C13.4882 27.1346 13.3299 27.1346 13.2322 27.2322C13.1346 27.3299 13.1346 27.4882 13.2322 27.5858L14.8232 29.1768ZM15.1768 12.8232C15.0791 12.7256 14.9209 12.7256 14.8232 12.8232L13.2322 14.4142C13.1346 14.5118 13.1346 14.6701 13.2322 14.7678C13.3299 14.8654 13.4882 14.8654 13.5858 14.7678L15 13.3536L16.4142 14.7678C16.5118 14.8654 16.6701 14.8654 16.7678 14.7678C16.8654 14.6701 16.8654 14.5118 16.7678 14.4142L15.1768 12.8232ZM15.25 29L15.25 13L14.75 13L14.75 29L15.25 29Z" fill="#8C8C8C"/>
<path d="M23.1768 21.1768C23.2744 21.0791 23.2744 20.9209 23.1768 20.8232L21.5858 19.2322C21.4882 19.1346 21.3299 19.1346 21.2322 19.2322C21.1346 19.3299 21.1346 19.4882 21.2322 19.5858L22.6464 21L21.2322 22.4142C21.1346 22.5118 21.1346 22.6701 21.2322 22.7678C21.3299 22.8654 21.4882 22.8654 21.5858 22.7678L23.1768 21.1768ZM6.82322 20.8232C6.72559 20.9209 6.72559 21.0791 6.82322 21.1768L8.41421 22.7678C8.51184 22.8654 8.67014 22.8654 8.76777 22.7678C8.8654 22.6701 8.8654 22.5118 8.76777 22.4142L7.35355 21L8.76777 19.5858C8.8654 19.4882 8.8654 19.3299 8.76777 19.2322C8.67014 19.1346 8.51184 19.1346 8.41421 19.2322L6.82322 20.8232ZM23 20.75H7V21.25H23V20.75Z" fill="#8C8C8C"/>
<path d="M17.04 4.28C17.0773 4.42933 17.096 4.616 17.096 4.84C17.096 5.05467 17.0773 5.24133 17.04 5.4C17.0773 5.54933 17.096 5.736 17.096 5.96C17.096 6.17467 17.0773 6.36133 17.04 6.52C17.0773 6.66933 17.096 6.856 17.096 7.08C17.096 7.29467 17.0773 7.48133 17.04 7.64H16.62C16.6573 7.78933 16.676 7.976 16.676 8.2C16.676 8.41467 16.6573 8.60133 16.62 8.76C16.6573 8.90933 16.676 9.096 16.676 9.32C16.676 9.53467 16.6573 9.72133 16.62 9.88H16.34C16.3773 10.0293 16.396 10.216 16.396 10.44C16.396 10.6547 16.3773 10.8413 16.34 11H15.5C15.4627 10.8413 15.444 10.6547 15.444 10.44C15.444 10.216 15.4627 10.0293 15.5 9.88H15.22C15.1827 9.72133 15.164 9.53467 15.164 9.32C15.164 9.096 15.1827 8.90933 15.22 8.76H14.38C14.4173 8.90933 14.436 9.096 14.436 9.32C14.436 9.53467 14.4173 9.72133 14.38 9.88H14.1C14.1373 10.0293 14.156 10.216 14.156 10.44C14.156 10.6547 14.1373 10.8413 14.1 11H13.26C13.2227 10.8413 13.204 10.6547 13.204 10.44C13.204 10.216 13.2227 10.0293 13.26 9.88H12.98C12.9427 9.72133 12.924 9.53467 12.924 9.32C12.924 9.096 12.9427 8.90933 12.98 8.76C12.9427 8.60133 12.924 8.41467 12.924 8.2C12.924 7.976 12.9427 7.78933 12.98 7.64H12.56C12.5227 7.48133 12.504 7.29467 12.504 7.08C12.504 6.856 12.5227 6.66933 12.56 6.52C12.5227 6.36133 12.504 6.17467 12.504 5.96C12.504 5.736 12.5227 5.54933 12.56 5.4C12.5227 5.24133 12.504 5.05467 12.504 4.84C12.504 4.616 12.5227 4.42933 12.56 4.28C12.5227 4.12133 12.504 3.93467 12.504 3.72C12.504 3.496 12.5227 3.30933 12.56 3.16H13.68C13.7173 3.30933 13.736 3.496 13.736 3.72C13.736 3.93467 13.7173 4.12133 13.68 4.28C13.7173 4.42933 13.736 4.616 13.736 4.84C13.736 5.05467 13.7173 5.24133 13.68 5.4C13.7173 5.54933 13.736 5.736 13.736 5.96C13.736 6.17467 13.7173 6.36133 13.68 6.52C13.7173 6.66933 13.736 6.856 13.736 7.08C13.736 7.29467 13.7173 7.48133 13.68 7.64C13.7173 7.78933 13.736 7.976 13.736 8.2C13.736 8.41467 13.7173 8.60133 13.68 8.76H14.1C14.0627 8.60133 14.044 8.41467 14.044 8.2C14.044 7.976 14.0627 7.78933 14.1 7.64H14.38C14.3427 7.48133 14.324 7.29467 14.324 7.08C14.324 6.856 14.3427 6.66933 14.38 6.52C14.3427 6.36133 14.324 6.17467 14.324 5.96C14.324 5.736 14.3427 5.54933 14.38 5.4C14.3427 5.24133 14.324 5.05467 14.324 4.84C14.324 4.616 14.3427 4.42933 14.38 4.28C14.3427 4.12133 14.324 3.93467 14.324 3.72C14.324 3.496 14.3427 3.30933 14.38 3.16H15.22C15.2573 3.30933 15.276 3.496 15.276 3.72C15.276 3.93467 15.2573 4.12133 15.22 4.28C15.2573 4.42933 15.276 4.616 15.276 4.84C15.276 5.05467 15.2573 5.24133 15.22 5.4C15.2573 5.54933 15.276 5.736 15.276 5.96C15.276 6.17467 15.2573 6.36133 15.22 6.52C15.2573 6.66933 15.276 6.856 15.276 7.08C15.276 7.29467 15.2573 7.48133 15.22 7.64H15.5C15.5373 7.78933 15.556 7.976 15.556 8.2C15.556 8.41467 15.5373 8.60133 15.5 8.76H15.92C15.8827 8.60133 15.864 8.41467 15.864 8.2C15.864 7.976 15.8827 7.78933 15.92 7.64C15.8827 7.48133 15.864 7.29467 15.864 7.08C15.864 6.856 15.8827 6.66933 15.92 6.52C15.8827 6.36133 15.864 6.17467 15.864 5.96C15.864 5.736 15.8827 5.54933 15.92 5.4C15.8827 5.24133 15.864 5.05467 15.864 4.84C15.864 4.616 15.8827 4.42933 15.92 4.28C15.8827 4.12133 15.864 3.93467 15.864 3.72C15.864 3.496 15.8827 3.30933 15.92 3.16H17.04C17.0773 3.30933 17.096 3.496 17.096 3.72C17.096 3.93467 17.0773 4.12133 17.04 4.28Z" fill="white"/>
<path d="M17.04 34.64C17.0773 34.7893 17.096 34.976 17.096 35.2C17.096 35.4147 17.0773 35.6013 17.04 35.76C17.0773 35.9093 17.096 36.096 17.096 36.32C17.096 36.5347 17.0773 36.7213 17.04 36.88H16.48C16.5173 37.0293 16.536 37.216 16.536 37.44C16.536 37.6547 16.5173 37.8413 16.48 38H13.12C13.0827 37.8413 13.064 37.6547 13.064 37.44C13.064 37.216 13.0827 37.0293 13.12 36.88H12.56C12.5227 36.7213 12.504 36.5347 12.504 36.32C12.504 36.096 12.5227 35.9093 12.56 35.76H13.68C13.7173 35.9093 13.736 36.096 13.736 36.32C13.736 36.5347 13.7173 36.7213 13.68 36.88H15.92C15.8827 36.7213 15.864 36.5347 15.864 36.32C15.864 36.096 15.8827 35.9093 15.92 35.76C15.8827 35.6013 15.864 35.4147 15.864 35.2C15.864 34.976 15.8827 34.7893 15.92 34.64H13.12C13.0827 34.4813 13.064 34.2947 13.064 34.08C13.064 33.856 13.0827 33.6693 13.12 33.52H12.56C12.5227 33.3613 12.504 33.1747 12.504 32.96C12.504 32.736 12.5227 32.5493 12.56 32.4C12.5227 32.2413 12.504 32.0547 12.504 31.84C12.504 31.616 12.5227 31.4293 12.56 31.28H13.12C13.0827 31.1213 13.064 30.9347 13.064 30.72C13.064 30.496 13.0827 30.3093 13.12 30.16H16.48C16.5173 30.3093 16.536 30.496 16.536 30.72C16.536 30.9347 16.5173 31.1213 16.48 31.28H17.04C17.0773 31.4293 17.096 31.616 17.096 31.84C17.096 32.0547 17.0773 32.2413 17.04 32.4H15.92C15.8827 32.2413 15.864 32.0547 15.864 31.84C15.864 31.616 15.8827 31.4293 15.92 31.28H13.68C13.7173 31.4293 13.736 31.616 13.736 31.84C13.736 32.0547 13.7173 32.2413 13.68 32.4C13.7173 32.5493 13.736 32.736 13.736 32.96C13.736 33.1747 13.7173 33.3613 13.68 33.52H16.48C16.5173 33.6693 16.536 33.856 16.536 34.08C16.536 34.2947 16.5173 34.4813 16.48 34.64H17.04Z" fill="white"/>
<path d="M5.096 23.32C5.096 23.5347 5.07733 23.7213 5.04 23.88C5.07733 24.0293 5.096 24.216 5.096 24.44C5.096 24.6547 5.07733 24.8413 5.04 25H3.92C3.88267 24.8413 3.864 24.6547 3.864 24.44C3.864 24.216 3.88267 24.0293 3.92 23.88C3.88267 23.7213 3.864 23.5347 3.864 23.32C3.864 23.096 3.88267 22.9093 3.92 22.76H1.68C1.71733 22.9093 1.736 23.096 1.736 23.32C1.736 23.5347 1.71733 23.7213 1.68 23.88C1.71733 24.0293 1.736 24.216 1.736 24.44C1.736 24.6547 1.71733 24.8413 1.68 25H0.56C0.522667 24.8413 0.504 24.6547 0.504 24.44C0.504 24.216 0.522667 24.0293 0.56 23.88C0.522667 23.7213 0.504 23.5347 0.504 23.32C0.504 23.096 0.522667 22.9093 0.56 22.76H0.98C0.942667 22.6013 0.924 22.4147 0.924 22.2C0.924 21.976 0.942667 21.7893 0.98 21.64C0.942667 21.4813 0.924 21.2947 0.924 21.08C0.924 20.856 0.942667 20.6693 0.98 20.52H1.26C1.22267 20.3613 1.204 20.1747 1.204 19.96C1.204 19.736 1.22267 19.5493 1.26 19.4H1.68C1.64267 19.2413 1.624 19.0547 1.624 18.84C1.624 18.616 1.64267 18.4293 1.68 18.28H1.96C1.92267 18.1213 1.904 17.9347 1.904 17.72C1.904 17.496 1.92267 17.3093 1.96 17.16H3.64C3.67733 17.3093 3.696 17.496 3.696 17.72C3.696 17.9347 3.67733 18.1213 3.64 18.28H3.92C3.95733 18.4293 3.976 18.616 3.976 18.84C3.976 19.0547 3.95733 19.2413 3.92 19.4H4.34C4.37733 19.5493 4.396 19.736 4.396 19.96C4.396 20.1747 4.37733 20.3613 4.34 20.52H4.62C4.65733 20.6693 4.676 20.856 4.676 21.08C4.676 21.2947 4.65733 21.4813 4.62 21.64C4.65733 21.7893 4.676 21.976 4.676 22.2C4.676 22.4147 4.65733 22.6013 4.62 22.76H5.04C5.07733 22.9093 5.096 23.096 5.096 23.32ZM3.5 21.64C3.46267 21.4813 3.444 21.2947 3.444 21.08C3.444 20.856 3.46267 20.6693 3.5 20.52H3.22C3.18267 20.3613 3.164 20.1747 3.164 19.96C3.164 19.736 3.18267 19.5493 3.22 19.4H2.38C2.41733 19.5493 2.436 19.736 2.436 19.96C2.436 20.1747 2.41733 20.3613 2.38 20.52H2.1C2.13733 20.6693 2.156 20.856 2.156 21.08C2.156 21.2947 2.13733 21.4813 2.1 21.64H3.5Z" fill="white"/>
<path d="M29.04 20.52C29.0773 20.6693 29.096 20.856 29.096 21.08C29.096 21.2947 29.0773 21.4813 29.04 21.64C29.0773 21.7893 29.096 21.976 29.096 22.2C29.096 22.4147 29.0773 22.6013 29.04 22.76H28.48C28.5173 22.9093 28.536 23.096 28.536 23.32C28.536 23.5347 28.5173 23.7213 28.48 23.88H27.92C27.9573 24.0293 27.976 24.216 27.976 24.44C27.976 24.6547 27.9573 24.8413 27.92 25H24.56C24.5227 24.8413 24.504 24.6547 24.504 24.44C24.504 24.216 24.5227 24.0293 24.56 23.88C24.5227 23.7213 24.504 23.5347 24.504 23.32C24.504 23.096 24.5227 22.9093 24.56 22.76C24.5227 22.6013 24.504 22.4147 24.504 22.2C24.504 21.976 24.5227 21.7893 24.56 21.64C24.5227 21.4813 24.504 21.2947 24.504 21.08C24.504 20.856 24.5227 20.6693 24.56 20.52C24.5227 20.3613 24.504 20.1747 24.504 19.96C24.504 19.736 24.5227 19.5493 24.56 19.4C24.5227 19.2413 24.504 19.0547 24.504 18.84C24.504 18.616 24.5227 18.4293 24.56 18.28C24.5227 18.1213 24.504 17.9347 24.504 17.72C24.504 17.496 24.5227 17.3093 24.56 17.16H27.92C27.9573 17.3093 27.976 17.496 27.976 17.72C27.976 17.9347 27.9573 18.1213 27.92 18.28H28.48C28.5173 18.4293 28.536 18.616 28.536 18.84C28.536 19.0547 28.5173 19.2413 28.48 19.4H29.04C29.0773 19.5493 29.096 19.736 29.096 19.96C29.096 20.1747 29.0773 20.3613 29.04 20.52ZM27.92 22.76C27.8827 22.6013 27.864 22.4147 27.864 22.2C27.864 21.976 27.8827 21.7893 27.92 21.64C27.8827 21.4813 27.864 21.2947 27.864 21.08C27.864 20.856 27.8827 20.6693 27.92 20.52C27.8827 20.3613 27.864 20.1747 27.864 19.96C27.864 19.736 27.8827 19.5493 27.92 19.4H27.36C27.3227 19.2413 27.304 19.0547 27.304 18.84C27.304 18.616 27.3227 18.4293 27.36 18.28H25.68C25.7173 18.4293 25.736 18.616 25.736 18.84C25.736 19.0547 25.7173 19.2413 25.68 19.4C25.7173 19.5493 25.736 19.736 25.736 19.96C25.736 20.1747 25.7173 20.3613 25.68 20.52C25.7173 20.6693 25.736 20.856 25.736 21.08C25.736 21.2947 25.7173 21.4813 25.68 21.64C25.7173 21.7893 25.736 21.976 25.736 22.2C25.736 22.4147 25.7173 22.6013 25.68 22.76C25.7173 22.9093 25.736 23.096 25.736 23.32C25.736 23.5347 25.7173 23.7213 25.68 23.88H27.36C27.3227 23.7213 27.304 23.5347 27.304 23.32C27.304 23.096 27.3227 22.9093 27.36 22.76H27.92Z" fill="white"/>
</svg>
